<svg version="1.2" xmlns="http://www.w3.org/2000/svg" viewBox="0 0 123 112" width="123" height="112"><style>.a{fill:#f25022}.b{fill:#7fba00}.c{fill:#00a4ef}.d{fill:#444}.e{fill:#737373}</style><path fill-rule="evenodd" class="a" d="m77.7 1.3q0.5-0.4 1-0.7 0.5-0.3 1.1-0.5 0.6-0.1 1.2-0.1h24.5q0.6 0 1.2 0.1 0.6 0.2 1.1 0.5 0.5 0.3 0.9 0.7 0.5 0.4 0.8 0.9l12.4 20.3q0.3 0.5 0.5 1.1 0.2 0.7 0.2 1.3 0 0.7-0.2 1.3-0.2 0.6-0.5 1.2l-12.3 20.2q-0.3 0.5-0.8 0.9-0.4 0.5-0.9 0.7-0.5 0.3-1.1 0.5-0.6 0.1-1.2 0.1h-24.6q-0.6 0-1.2-0.1-0.6-0.2-1.1-0.5-0.5-0.2-1-0.7-0.4-0.4-0.7-0.9l-12.3-20.2q-0.3-0.6-0.5-1.2-0.2-0.6-0.2-1.3 0-0.6 0.2-1.3 0.2-0.6 0.5-1.1l12.3-20.3q0.3-0.5 0.7-0.9zm5.8 8.1l-9.4 15.5h19l9.8 15.6 9.5-15.6-9.5-15.5z"/><path fill-rule="evenodd" class="b" d="m77.7 63.3q0.5-0.4 1-0.7 0.5-0.3 1.1-0.4 0.6-0.2 1.2-0.2h24.5q0.6 0 1.2 0.2 0.5 0.1 1.1 0.4 0.5 0.3 0.9 0.7 0.5 0.4 0.8 1l12.3 20.2q0.3 0.5 0.5 1.2 0.2 0.6 0.2 1.2 0 0.7-0.2 1.3-0.2 0.6-0.5 1.2l-12.2 20.2q-0.3 0.5-0.8 1-0.4 0.4-0.9 0.7-0.5 0.3-1.1 0.4-0.6 0.2-1.2 0.2h-24.6q-0.6 0-1.2-0.2-0.6-0.1-1.1-0.4-0.5-0.3-1-0.7-0.4-0.5-0.7-1l-12.3-20.2q-0.3-0.6-0.5-1.2-0.2-0.6-0.2-1.3 0-0.6 0.2-1.2 0.2-0.7 0.5-1.2l12.3-20.2q0.3-0.6 0.7-1zm15.4 23.7l-19-0.1 9.4 15.6h19.4l9.5-15.6-9.5-15.5z"/><path fill-rule="evenodd" class="c" d="m52.1 31q0.6 0 1.2 0.1 0.6 0.2 1.1 0.5 0.5 0.3 1 0.7 0.4 0.4 0.7 1l12.3 20.2q0.3 0.5 0.5 1.2 0.2 0.6 0.2 1.2 0 0.7-0.2 1.3-0.2 0.6-0.5 1.2l-12.3 20.2q-0.3 0.5-0.7 1-0.4 0.4-1 0.7-0.5 0.3-1.1 0.4-0.6 0.2-1.2 0.2h-24.6q-0.5 0-1.1-0.2-0.6-0.2-1.1-0.4-0.5-0.3-1-0.8-0.4-0.4-0.7-0.9l-4.3-7.1h9.5l9.5-15.6-9.5-15.5h-9.5l4.3-7.2q0.3-0.5 0.7-0.9 0.5-0.4 1-0.7 0.5-0.3 1.1-0.4 0.6-0.2 1.2-0.2zm-32.9 40.5h-9.8l-9.4-15.6 9.4-15.5h9.8l-7.9 13.1q-0.4 0.5-0.6 1.2-0.1 0.6-0.1 1.2 0 0.7 0.1 1.3 0.2 0.6 0.6 1.2z"/><path fill-rule="evenodd" class="d" d="m219.9 97.4h3.1q1.8 0 2.7 0.8 0.8 0.8 0.8 2.6v5.8q0 1.8-0.8 2.6-0.9 0.8-2.7 0.8h-3.2q-2.9 0-3.6-2.1v1.6q0 0.5-0.4 0.5h-1.5q-0.5 0-0.5-0.5v-16.8q0-0.5 0.5-0.5h1.8q0.5 0 0.5 0.5v6.3q0.8-1.6 3.3-1.6zm-0.7 10.3h2.6q0.6 0 1-0.1 0.4 0 0.6-0.2 0.2-0.2 0.3-0.5 0.1-0.4 0.1-0.9v-4.6q0-0.6-0.1-0.9-0.1-0.3-0.3-0.5-0.2-0.2-0.6-0.3-0.4 0-1 0h-2.6q-1.4 0-2 0.5-0.6 0.6-0.6 1.8v3.4q0 1.2 0.6 1.8 0.6 0.5 2 0.5zm19 7.2h-4.9q-1.8 0-2.6-0.7-0.8-0.7-0.8-2.4v-0.2q0-0.4 0.5-0.4h1.7q0.5 0 0.5 0.4v0.2q0 0.6 0.3 0.8 0.3 0.2 0.8 0.2h3.5q0.6 0 1.1-0.1 0.4-0.1 0.6-0.3 0.3-0.3 0.4-0.6 0.1-0.4 0.1-0.9v-2.5q-0.9 1.6-3.4 1.6h-2.7q-1.9 0-2.8-0.8-0.8-0.8-0.8-2.6v-8.8q0-0.4 0.4-0.4h1.9q0.4 0 0.4 0.4v8.2q0 0.5 0.1 0.9 0.1 0.3 0.3 0.5 0.2 0.2 0.6 0.2 0.4 0.1 1 0.1h2.3q1.5 0 2.1-0.5 0.6-0.6 0.6-1.8v-7.6q0-0.4 0.4-0.4h1.9q0.4 0 0.4 0.4v13.4q0 1.8-1 2.8-0.9 0.9-2.9 0.9zm28.9-5.4l-1.4-3h-10l-1.4 3q-0.1 0.3-0.3 0.4-0.1 0.1-0.4 0.1h-2.1q-0.2 0-0.3-0.1-0.1-0.2 0-0.4l7.4-15.8q0.1-0.3 0.3-0.4 0.1-0.1 0.4-0.1h2.9q0.2 0 0.4 0.1 0.2 0.1 0.3 0.4l7.4 15.8q0.1 0.2 0 0.4-0.1 0.1-0.3 0.1h-2.2q-0.3 0-0.5-0.1-0.1-0.1-0.2-0.4zm-6.4-14l-3.9 8.5h7.7zm18 4.1h-3.2v6.6q0 0.5 0.1 0.7 0.1 0.3 0.2 0.5 0.2 0.1 0.4 0.2 0.3 0.1 0.7 0.1h1.8q0.5 0 0.5 0.4v1.4q0 0.4-0.5 0.4h-2.6q-1.8 0-2.5-0.7-0.8-0.7-0.8-2.5v-7.1h-1.5q-0.4 0-0.4-0.5v-1.3q0-0.5 0.4-0.5h1.5v-2.7q0-0.5 0.4-0.5h1.9q0.4 0 0.4 0.5v2.7h3.2q0.5 0 0.5 0.5v1.3q0 0.5-0.5 0.5zm15.9 1.2v5.7q0 1.8-0.9 2.6-0.9 0.8-2.7 0.8h-5.9q-1.8 0-2.7-0.8-0.8-0.8-0.8-2.6v-5.7q0-1.8 0.8-2.7 0.9-0.8 2.7-0.8h5.9q1.8 0 2.7 0.8 0.9 0.9 0.9 2.7zm-2.8 5.2v-4.7q0-0.5-0.1-0.9-0.1-0.3-0.3-0.5-0.2-0.2-0.6-0.2-0.4-0.1-1-0.1h-3.5q-0.6 0-1 0.1-0.4 0-0.6 0.2-0.3 0.2-0.3 0.5-0.1 0.4-0.1 0.9v4.7q0 0.5 0.1 0.8 0 0.4 0.3 0.6 0.2 0.1 0.6 0.2 0.4 0.1 1 0.1h3.5q0.6 0 1-0.1 0.4-0.1 0.6-0.2 0.2-0.2 0.3-0.6 0.1-0.3 0.1-0.8zm14.5 3.5v-8.2q0-0.5-0.1-0.9-0.1-0.3-0.3-0.5-0.2-0.2-0.6-0.2-0.4-0.1-1.1-0.1h-1q-1.4 0-2 0.6-0.6 0.5-0.6 1.8v7.5q0 0.4-0.5 0.4h-1.8q-0.5 0-0.5-0.4v-11.7q0-0.5 0.5-0.5h1.5q0.5 0 0.5 0.5v1.7q0.7-2.2 3.5-2.2h1.4q3 0 3.4 2.3 0.7-2.3 3.6-2.3h1.6q1.9 0 2.8 0.8 0.8 0.9 0.8 2.7v8.7q0 0.4-0.5 0.4h-1.8q-0.5 0-0.5-0.4c0-0.3 0-8.8 0-9.1q-0.1-0.3-0.3-0.5-0.2-0.2-0.6-0.2-0.4-0.1-1.1-0.1h-1q-1.4 0-2 0.6-0.6 0.5-0.6 1.8v7.5q0 0.4-0.5 0.4h-1.8q-0.4 0-0.4-0.4zm14.6-14.8v-1.9q0-0.5 0.5-0.5h1.8q0.4 0 0.4 0.5v1.9q0 0.4-0.4 0.4h-1.8q-0.5 0-0.5-0.4zm0 14.8v-11.7q0-0.5 0.5-0.5h1.8q0.4 0 0.4 0.5v11.7q0 0.4-0.4 0.4h-1.8q-0.5 0-0.5-0.4zm16.1-2.8v-0.6q0-0.5 0.5-0.5h1.7q0.5 0 0.5 0.5v0.7q0 1.7-0.8 2.4-0.8 0.7-2.6 0.7h-5.8q-1.8 0-2.7-0.8-0.8-0.8-0.8-2.6v-5.7q0-1.8 0.8-2.7 0.9-0.8 2.7-0.8h5.8q1.8 0 2.6 0.8 0.8 0.7 0.8 2.4v0.7q0 0.4-0.5 0.4h-1.7q-0.5 0-0.5-0.4v-0.6q0-0.6-0.3-0.8-0.3-0.2-0.9-0.2h-4.1q-0.6 0-1 0.1-0.4 0-0.7 0.2-0.2 0.2-0.2 0.5-0.1 0.4-0.1 0.9v4.7q0 0.5 0.1 0.8 0 0.4 0.2 0.6 0.3 0.1 0.7 0.2 0.4 0.1 1 0.1h4.1q0.6 0 0.9-0.2 0.3-0.3 0.3-0.8zm11.6 3.2h-3.2q-1.8 0-2.6-0.6-0.8-0.8-0.8-2.5v-1.1q0-0.9 0.2-1.5 0.2-0.7 0.6-1 0.4-0.4 1-0.5 0.7-0.2 1.6-0.2h6.5v-1.2q0-0.5-0.1-0.9-0.1-0.3-0.3-0.5-0.2-0.2-0.6-0.2-0.4-0.1-1-0.1h-3.6q-0.6 0-0.9 0.2-0.3 0.2-0.3 0.7v0.2q0 0.4-0.4 0.4h-1.7q-0.5 0-0.5-0.4v-0.2q0-1.7 0.7-2.4 0.8-0.8 2.6-0.8h5.3q1.8 0 2.7 0.8 0.8 0.9 0.8 2.7v6.3q0 0.6 0.6 0.6h0.2q0.4 0 0.4 0.4v1.4q0 0.4-0.4 0.4h-1.2q-1.1 0-1.6-0.5-0.4-0.5-0.4-1.4v-0.1q-0.8 2-3.6 2zm-2.6-2.2h3.3q1.4 0 2-0.6 0.6-0.5 0.6-1.8v-0.6h-5.9q-0.6 0-0.9 0.2-0.3 0.2-0.3 0.8v1q0 0.5 0.3 0.8 0.3 0.2 0.9 0.2zm35.5-9.5h-1.9q-0.5 0-0.5-0.4v-0.7q0-1.5-1.5-1.5h-6.9q-0.8 0-1.2 0.1-0.5 0.1-0.8 0.3-0.3 0.2-0.3 0.7-0.1 0.3-0.1 1v7.7q0 0.7 0.1 1.1 0 0.4 0.3 0.6 0.3 0.2 0.8 0.3 0.4 0.1 1.2 0.1h6.9q1.5 0 1.5-1.5v-2.6h-4.7q-0.6 0-0.6-0.5v-1.5q0-0.5 0.6-0.5h7.1q0.5 0 0.5 0.5v4.8q0 1-0.2 1.8-0.2 0.7-0.7 1.1-0.4 0.4-1.2 0.7-0.7 0.1-1.8 0.1h-8.8q-2.1 0-3.1-0.9-0.9-0.9-0.9-2.9v-9.1q0-3.9 4-3.9h8.8q1.1 0 1.8 0.3 0.8 0.2 1.2 0.6 0.5 0.4 0.7 1.2 0.2 0.7 0.2 1.7v0.9q0 0.4-0.5 0.4zm11.2 1.4h-1.1q-1.8 0-2.6 0.8-0.8 0.8-0.8 2.3v6.8q0 0.4-0.4 0.4h-1.8q-0.5 0-0.5-0.4v-11.7q0-0.5 0.5-0.5h1.4q0.5 0 0.5 0.5v1.8q0.6-2.3 3.6-2.3h1.2q0.4 0 0.4 0.5v1.3q0 0.5-0.4 0.5zm15.3 1.2v5.7q0 1.8-0.9 2.6-0.8 0.8-2.7 0.8h-5.8q-1.9 0-2.7-0.8-0.9-0.8-0.9-2.6v-5.7q0-1.8 0.9-2.7 0.8-0.8 2.7-0.8h5.8q1.9 0 2.7 0.8 0.9 0.9 0.9 2.7zm-2.8 5.2c0-0.3 0-5.3 0-5.6q-0.1-0.3-0.3-0.5-0.2-0.2-0.6-0.2-0.4-0.1-1.1-0.1h-3.4q-0.7 0-1.1 0.1-0.3 0-0.6 0.2-0.2 0.2-0.3 0.5 0 0.4 0 0.9c0 0.3 0 5.3 0 5.5q0.1 0.4 0.3 0.6 0.3 0.1 0.6 0.2 0.4 0.1 1.1 0.1h3.4q0.7 0 1.1-0.1 0.4-0.1 0.6-0.2 0.2-0.2 0.3-0.6 0-0.3 0-0.8zm8.7-8.2v8.2q0 0.5 0.1 0.8 0 0.4 0.2 0.6 0.3 0.1 0.6 0.2 0.4 0.1 1.1 0.1h2.3q1.4 0 2-0.6 0.6-0.6 0.6-1.8v-7.5q0-0.5 0.5-0.5h1.8q0.5 0 0.5 0.5v11.7q0 0.4-0.5 0.4h-1.5q-0.5 0-0.5-0.4v-1.7q-0.7 2.1-3.5 2.1h-2.9q-1.9 0-2.7-0.8-0.9-0.8-0.9-2.6v-8.7q0-0.5 0.5-0.5h1.8q0.5 0 0.5 0.5zm19.3-0.5h3.1q1.9 0 2.8 0.8 0.8 0.9 0.8 2.7v5.7q0 1.8-0.8 2.6-0.9 0.8-2.8 0.8h-3q-2.5 0-3.3-1.6v6.1q0 0.4-0.5 0.4h-1.8q-0.5 0-0.5-0.4v-16.6q0-0.5 0.5-0.5h1.5q0.4 0 0.4 0.5v1.7q0.7-2.2 3.6-2.2zm-0.6 10.4h2.6q0.6 0 1-0.1 0.4-0.1 0.6-0.2 0.2-0.2 0.3-0.6 0.1-0.3 0.1-0.8v-4.7q0-0.5-0.1-0.9-0.1-0.3-0.3-0.5-0.2-0.2-0.6-0.2-0.4-0.1-1-0.1h-2.6q-1.5 0-2.1 0.6-0.5 0.5-0.5 1.8v3.3q0 1.2 0.5 1.8 0.6 0.6 2.1 0.6z"/><path fill-rule="evenodd" class="e" d="m175.4 85h-5.6q-1 0-1.5-0.3-0.5-0.3-0.9-1.1l-24.3-53q-0.3-0.6-0.1-1.1 0.2-0.5 0.9-0.5h4.7q1.1 0 1.5 0.3 0.5 0.3 0.9 1.1l21.7 48.4 21.8-48.4q0.4-0.8 0.9-1.1 0.4-0.3 1.5-0.3h4.3q0.7 0 1 0.5 0.2 0.5-0.1 1.1l-24.4 53q-0.4 0.8-0.9 1.1-0.4 0.3-1.4 0.3zm42.2-54.4v52.8q0 1.6-1.7 1.6h-4q-1.7 0-1.7-1.6v-52.8q0-1.6 1.7-1.6h4q1.7 0 1.7 1.6zm13 39.1h4q1.6 0 1.6 1.6v1.6q0 3 1.4 4.4 1.4 1.4 4.6 1.4h25.2q2.7 0 4.4-0.3 1.6-0.4 2.5-1.2 0.9-0.8 1.2-2.1 0.3-1.5 0.3-3.6v-4.4q0-2.2-0.3-3.5-0.3-1.5-1.2-2.3-0.9-0.8-2.5-1.1-1.7-0.3-4.4-0.3h-25.2q-12.4 0-12.4-12v-6.9q0-12 12.4-12h27q7 0 9.9 2.9 3.1 2.9 3.1 9.5v1.3q0 1.6-1.7 1.6h-3.9q-1.6 0-1.6-1.6v-1.6q0-3-1.5-4.3-1.3-1.5-4.5-1.5h-23.5q-2.6 0-4.3 0.3-1.6 0.4-2.6 1.2-0.8 0.8-1.2 2.2-0.3 1.4-0.3 3.5v3.9q0 2.1 0.3 3.6 0.4 1.3 1.2 2.1 1 0.8 2.6 1.1 1.7 0.4 4.3 0.4h25.2q12.6 0 12.6 12v7.4q0 12-12.6 12h-28.8q-6.9 0-10-2.8-2.9-2.9-2.9-9.6v-1.3q0-1.6 1.6-1.6zm71.4-39.1v52.8q0 1.6-1.7 1.6h-4q-1.7 0-1.7-1.6v-52.8q0-1.6 1.7-1.6h4q1.7 0 1.7 1.6zm68.7 11.2v30.4q0 12.8-13.3 12.8h-28.7q-13.4 0-13.4-12.8v-30.4q0-12.8 13.4-12.8h28.7q13.3 0 13.3 12.8zm-7.4 29.4v-28.4q0-2.3-0.4-3.7-0.3-1.5-1.3-2.3-1-0.8-2.7-1.2-1.7-0.3-4.4-0.3h-23.1q-2.7 0-4.4 0.3-1.7 0.4-2.7 1.2-0.9 0.8-1.3 2.3-0.4 1.4-0.4 3.7v28.4q0 2.3 0.4 3.7 0.4 1.5 1.3 2.3 1 0.8 2.7 1.2 1.7 0.3 4.4 0.3h23.1q2.7 0 4.4-0.3 1.7-0.4 2.7-1.2 1-0.8 1.3-2.3 0.4-1.4 0.4-3.7zm74.6 13.8h-7.7q-1 0-1.5-0.2-0.4-0.3-0.9-1l-36.9-48.6v48.2q0 1.6-1.7 1.6h-3.8q-1.6 0-1.6-1.6v-52.8q0-1.6 1.6-1.6h7.8q0.9 0 1.3 0.3 0.5 0.3 1 0.9l37 48.6v-48.2q0-1.6 1.7-1.6h3.7q1.7 0 1.7 1.6v52.8q0 1.6-1.7 1.6z"/></svg>